<svg width="65" height="80" viewBox="0 0 65 80" version="1.1" xmlns="http://www.w3.org/2000/svg"><title>Icon/Achievements/10-Champion</title><g stroke="none" stroke-width="1" fill="none" fill-rule="evenodd"><g><g><path d="M9.14 0h46.72A9.14 9.14 0 0 1 65 9.14v50.803a9.14 9.14 0 0 1-5.275 8.283L36.308 79.155a9.14 9.14 0 0 1-7.745-.006l-23.3-10.92A9.14 9.14 0 0 1 0 59.954V9.141A9.14 9.14 0 0 1 9.14 0z" fill="#E53B3B"/><g><g><g transform="rotate(45 29.571 35.052)"><g><g><g><path d="M23.99 7.349v18.076a1.96 1.96 0 0 0 1.96 1.96h1.45a1.96 1.96 0 0 0 1.96-1.96V7.35h-5.37z" fill="#8D4300"/><path d="M23.99 9.745v3.157l5.165 5.102c.064.063.133.117.205.164V14.74l-4.717-4.659a1.227 1.227 0 0 0-.653-.337zM29.36 10.833V7.407l-.06-.06h-3.509l3.364 3.322c.064.063.133.118.205.164z" fill="#793A01"/></g><g><path d="M32.207 17.574H21.302l.188 23.44c.002.213.073.42.203.59l4.363 5.716a.986.986 0 0 0 1.554.017l4.57-5.721a.987.987 0 0 0 .216-.624l-.19-23.418z" fill="#E2E2E2"/><path fill="#FFF" d="M22.289 17.574h-.987l.09 11.134 10.993 10.995-.097-12.128-10-10z"/><path d="M31.689 17.574H21.302l.188 23.44c.002.213.073.42.203.59l4.363 5.716a.985.985 0 0 0 .835.386v-10.58h5.473l-.043-5.408h-5.43v-8.306c1.814.027 3.607.298 5.37.806l-.053-6.516a23.104 23.104 0 0 0-.52-.128z" fill="#D7C1C1"/><path d="M31.689 17.574H21.302l.188 23.44c.002.213.073.42.203.59l4.363 5.716a.985.985 0 0 0 .835.386v-10.58h5.473l-.043-5.408h-5.43v-8.306c1.814.027 3.607.298 5.37.806l-.053-6.516a23.104 23.104 0 0 0-.52-.128z" fill="#D7C1C1"/></g></g><path d="M24.179 5.763h4.961" stroke="#FCD000" stroke-width="3.43" stroke-linecap="round"/></g><rect fill="#FCD000" x="18.255" y="14.81" width="16.783" height="4.443" rx="2.221"/></g><g><g><g><path d="M19.776 11.517L32.558 24.3a1.96 1.96 0 0 1 0 2.772l-1.027 1.026a1.96 1.96 0 0 1-2.772 0L15.977 15.316l3.799-3.799z" fill="#8D4300"/><path d="M21.47 13.212l2.232 2.232-.045 7.26c0 .09-.01.177-.03.261l-2.422-2.423.041-6.63c.002-.26.084-.502.224-.7zM18.442 17.78l-2.423-2.424v-.084l2.482-2.482-.03 4.728c0 .09-.01.177-.03.261z" fill="#793A01"/></g><g><path d="M21.195 24.557l7.711-7.712 16.442 16.71a.98.98 0 0 1 .273.556l.958 7.137a.98.98 0 0 1-1.08 1.105l-7.287-.816a.98.98 0 0 1-.59-.286L21.195 24.557z" fill="#E2E2E2"/><path fill="#FFF" d="M28.208 17.543l.698-.698 7.81 7.936v15.55l-8.506-8.646z"/><path d="M46.26 42.104a.985.985 0 0 0 .318-.863l-.957-7.128a.987.987 0 0 0-.274-.56l-16.44-16.708-7.712 7.712 2.48 2.519a34.802 34.802 0 0 1 3.456-4.101l19.13 19.13z" fill="#D7C1C1"/></g><path d="M18.52 10.529l-3.508 3.508" stroke="#FCD000" stroke-width="3.43" stroke-linecap="round"/></g><path d="M27.535 14.307l-8.726 8.727a2.221 2.221 0 0 0 3.141 3.141l8.727-8.726a2.221 2.221 0 0 0-3.142-3.142z" fill="#FCD000"/></g></g></g></g></g></g></svg>