<svg width="65" height="80" viewBox="0 0 65 80" version="1.1" xmlns="http://www.w3.org/2000/svg"><title>Icon/Achievements/04-Big-Spender-Lingots</title><g stroke="none" stroke-width="1" fill="none" fill-rule="evenodd"><g><g><path d="M9.14 0h46.72A9.14 9.14 0 0 1 65 9.14v50.807a9.14 9.14 0 0 1-5.275 8.283L36.308 79.16a9.14 9.14 0 0 1-7.745-.007L5.262 68.233A9.14 9.14 0 0 1 0 59.958V9.14A9.14 9.14 0 0 1 9.14 0z" fill="#A560E8"/><g transform="translate(13 5)"><g><g><path d="M7.972 12.891l10.093-6.975a2.188 2.188 0 0 1 2.487 0l10.092 6.975c.59.409.944 1.082.944 1.8v15.255c0 .731-.366 1.414-.974 1.82l-10.092 6.729c-.735.49-1.692.49-2.427 0L8.002 31.766a2.188 2.188 0 0 1-.974-1.82V14.69c0-.718.353-1.391.944-1.8z" fill="#E73631"/><path d="M19.308 5.528c-.435 0-.87.13-1.243.388L7.972 12.891c-.413.286-.71.7-.851 1.17l5.862 3.655 5.812-.496.513-4.3V5.527z" fill="#FFA7A4"/><path d="M31.507 30.536c-.14.497-.453.936-.893 1.23l-10.092 6.729a2.186 2.186 0 0 1-1.204.367v-7.186l.513-4.3 5.812-.496 5.864 3.656z" fill="#D64170"/><path d="M19.308 38.862c-.423 0-.846-.122-1.213-.367L8.002 31.766a2.188 2.188 0 0 1-.939-1.428l5.92-3.691 5.812.496.513 4.3v7.42z" fill="#D52F2A"/></g><g><path fill="#FF3C36" d="M12.484 17.39l6.824-4.716 6.823 4.716v9.765l-6.823 4.55-6.824-4.55z"/><path fill="#FF5C57" d="M26.11 17.375l.021.015v9.765l-6.823 4.55-6.738-4.493z"/></g></g><rect fill="#FFF" opacity=".7" transform="rotate(45 7.5 4.5)" x="5" y="2" width="5" height="5" rx=".5"/><rect fill="#FFF" opacity=".7" transform="rotate(45 2.5 8.5)" x="1" y="7" width="3" height="3" rx=".5"/><rect fill="#FFF" opacity=".7" transform="rotate(45 36 33)" x="34" y="31" width="4" height="4" rx=".5"/></g></g></g></g></svg>