<svg width="65" height="80" viewBox="0 0 65 80" version="1.1" xmlns="http://www.w3.org/2000/svg"><title>Icon/Achievements/09-Wildfire</title><g stroke="none" stroke-width="1" fill="none" fill-rule="evenodd"><g><g><path d="M9.14 0h46.72A9.14 9.14 0 0 1 65 9.14v50.803a9.14 9.14 0 0 1-5.275 8.283L36.308 79.155a9.14 9.14 0 0 1-7.745-.006l-23.3-10.92A9.14 9.14 0 0 1 0 59.954V9.141A9.14 9.14 0 0 1 9.14 0z" fill="#A560E8"/><g><path d="M26.906 43.416c1.185-.19 4.88-8.131 4.185-12.578-.696-4.447-8.04-12.51-8.107-12.5-.067.011-4.592 9.978-3.896 14.425.696 4.447 6.633 10.843 7.818 10.653zM36.49 43.698c-1.007-.454-2.422-8.394-.76-12.174 1.662-3.78 10.077-9.17 10.133-9.145.057.026 1.733 9.964.07 13.745-1.662 3.78-8.436 8.029-9.443 7.574z" fill="#FF7A14"/><path d="M33.3 46.808c1.27 0 6.43-7.68 6.43-12.444 0-4.764-6.359-14.422-6.43-14.422-.07 0-6.429 9.658-6.429 14.422 0 4.764 5.16 12.444 6.43 12.444z" fill="#FF9514"/><path d="M31.428 46.808c.767-.33 1.94-6.31.733-9.188-1.207-2.878-7.494-7.062-7.537-7.043-.043.018-1.439 7.504-.232 10.383 1.206 2.878 6.269 6.178 7.036 5.848z" fill="#FFAD14"/><path d="M40.599 45.444c.379.221 3.227-1.171 4.039-2.594.81-1.423.556-5.417.535-5.43-.021-.012-3.564 1.762-4.375 3.185-.811 1.423-.578 4.617-.199 4.839zM25.772 45.11c-.335.286-3.38-.585-4.422-1.843-1.043-1.259-1.477-5.237-1.459-5.253.02-.016 3.813 1.108 4.855 2.367 1.043 1.258 1.361 4.445 1.026 4.73z" fill="#FF9514"/><path d="M28.579 17.33c.488 0 2.472-2.953 2.472-4.785C31.05 10.713 28.606 7 28.579 7c-.027 0-2.472 3.713-2.472 5.545 0 1.832 1.984 4.784 2.472 4.784z" fill="#FF7A14"/><path d="M35.918 29.29c.823.132 4.946-4.31 5.43-7.399.482-3.088-2.66-10.01-2.706-10.017-.046-.008-5.147 5.592-5.63 8.68-.483 3.089 2.083 8.604 2.906 8.736z" fill="#FFAD14"/></g></g></g></g></svg>