<svg width="65" height="80" viewBox="0 0 65 80" version="1.1" xmlns="http://www.w3.org/2000/svg"><title>Icon/Achievements/08-Friendly</title><g stroke="none" stroke-width="1" fill="none" fill-rule="evenodd"><g><g><path d="M9.14 0h46.72A9.14 9.14 0 0 1 65 9.14v50.764a9.14 9.14 0 0 1-5.277 8.284L36.306 79.11a9.14 9.14 0 0 1-7.74-.006L5.263 68.192A9.14 9.14 0 0 1 0 59.914V9.14A9.14 9.14 0 0 1 9.14 0z" fill="#7AC70C"/><g><g><path d="M17 22.346V41.02c0 1.09.884 1.975 1.975 1.975h28.05c1.09 0 1.975-.885 1.975-1.975V22.346c0-.674-.276-1.319-.763-1.785L34.365 7.304a1.975 1.975 0 0 0-2.73 0L17.763 20.561A2.469 2.469 0 0 0 17 22.346z" fill="#EEE"/><path fill="#D2D2D2" d="M33 37.292L49 22.77H17z"/><path d="M48.716 42.054a1.972 1.972 0 0 1-1.57.936H18.854a1.972 1.972 0 0 1-1.556-.911L31.983 31.65a1.987 1.987 0 0 1 2.309.008l14.424 10.395z" fill="#FFF"/><g transform="translate(24.385 15.737)"><path d="M1.963 7.817C.775 7.037 0 5.755 0 4.305 0 1.928 2.087 0 4.661 0 6.253 0 7.66.737 8.5 1.862 9.34.737 10.747 0 12.339 0 14.913 0 17 1.928 17 4.305c0 1.35-.672 2.554-1.724 3.344l-6.087 5.22a.894.894 0 0 1-1.151.008l-6.075-5.06z" fill="#FF5959"/><ellipse fill="#FF8585" cx="4" cy="3.946" rx="2" ry="1.973"/></g></g><path d="M17.137 6.69l2.237 2.19a.508.508 0 0 1 0 .73l-2.237 2.19a.535.535 0 0 1-.746 0l-2.237-2.19a.508.508 0 0 1 0-.73l2.237-2.19a.535.535 0 0 1 .746 0zM54.243 19.006l1.492 1.46a.508.508 0 0 1 0 .73l-1.492 1.46a.535.535 0 0 1-.745 0l-1.492-1.46a.508.508 0 0 1 0-.73l1.492-1.46a.535.535 0 0 1 .745 0z" fill="#FFF" opacity=".486"/></g></g></g></g></svg>