<svg width="65" height="80" viewBox="0 0 65 80" version="1.1" xmlns="http://www.w3.org/2000/svg" xmlns:xlink="http://www.w3.org/1999/xlink"><title>Icon/Achievements/05-Overachiever</title><defs><path d="M33.196 14.09c-.163.276-.372.52-.62.725l-12.948 10.64h-2.136L4.425 14.817a2.739 2.739 0 0 1-.626-.726h29.397z" id="a"/></defs><g stroke="none" stroke-width="1" fill="none" fill-rule="evenodd"><g><g><path d="M9.14 0h46.72A9.14 9.14 0 0 1 65 9.14v50.803a9.14 9.14 0 0 1-5.275 8.283L36.308 79.155a9.14 9.14 0 0 1-7.745-.006l-23.3-10.92A9.14 9.14 0 0 1 0 59.954V9.141A9.14 9.14 0 0 1 9.14 0z" fill="#E53B3B"/><g transform="translate(14 10)"><g><g><path d="M33.38 13.716l3.33-8.41c.186-.47.282-.977.282-1.488C36.992 1.71 35.392 0 33.42 0H3.573c-.478 0-.951.103-1.392.302C.364 1.124-.486 3.364.283 5.306l3.328 8.404c.17.43.447.809.806 1.1L17.93 25.811h1.263l13.39-11.003a2.7 2.7 0 0 0 .797-1.092z" fill="#00AFF9"/><mask fill="#fff"><use xlink:href="#a"/></mask><use fill="#009DE0" xlink:href="#a"/></g><path fill="#80D7FC" d="M12.79 0h10.049v17.727H12.79z"/><path d="M13.019 1.149v17.303M23.068 1.149v17.303" stroke="#009DE0" stroke-width="2.25" stroke-linecap="square"/></g><path d="M19.173 9.328l9.62 5.568a1.8 1.8 0 0 1 .898 1.558v11.144a1.8 1.8 0 0 1-.898 1.558l-9.62 5.568a1.8 1.8 0 0 1-1.803 0l-9.62-5.568a1.8 1.8 0 0 1-.898-1.558V16.454a1.8 1.8 0 0 1 .898-1.558l9.62-5.568a1.8 1.8 0 0 1 1.803 0z" fill="#FED557"/><path d="M29.163 28.868c-.113.113-.24.213-.383.295l-9.595 5.554a1.823 1.823 0 0 1-1.827 0l-9.595-5.554a1.826 1.826 0 0 1-.911-1.58V16.468c0-.225.041-.444.119-.648l22.192 13.047z" fill="#FFC800"/><path d="M18.726 13.363l6.187 3.63c.413.241.667.685.667 1.164v7.295c0 .479-.254.922-.667 1.164l-6.187 3.629a1.35 1.35 0 0 1-1.366 0l-6.187-3.629a1.35 1.35 0 0 1-.667-1.164v-7.295c0-.48.254-.923.667-1.165l6.187-3.629a1.35 1.35 0 0 1 1.366 0z" stroke="#FCB71A" stroke-width="2.25"/><rect fill="#FFF3CD" transform="rotate(45 22.888 18.685)" x="20.916" y="16.722" width="3.945" height="3.925" rx=".45"/><rect fill="#FFF3CD" transform="rotate(45 18.777 15.503)" x="17.451" y="14.183" width="2.653" height="2.64" rx=".45"/></g></g></g></g></svg>