<svg width="65" height="80" viewBox="0 0 65 80" version="1.1" xmlns="http://www.w3.org/2000/svg"><title>Icon/Achievements/03-Sharpshooter</title><g stroke="none" stroke-width="1" fill="none" fill-rule="evenodd"><g><g><path d="M9.14 0h46.72A9.14 9.14 0 0 1 65 9.14v50.807a9.14 9.14 0 0 1-5.275 8.283L36.308 79.16a9.14 9.14 0 0 1-7.745-.007L5.262 68.233A9.14 9.14 0 0 1 0 59.958V9.14A9.14 9.14 0 0 1 9.14 0z" fill="#7AC70C"/><g transform="rotate(-90 28.5 16.5)"><path d="M17.146 36.809a17.115 17.115 0 0 0 11.122-16.053A17.116 17.116 0 0 0 17.188 4.72" stroke="#936E3D" stroke-width="3.724"/><path d="M17.156 4.72c-1.082-.446-1.853-1.603-1.853-2.96 0-.651.178-1.257.483-1.76M17.098 36.849c-1.082.445-1.853 1.601-1.853 2.958 0 .652.178 1.258.483 1.76" stroke="#936E3D" stroke-width="3.724" stroke-linecap="round" stroke-linejoin="round"/><path stroke="#FFF" stroke-width="1.443" stroke-linecap="round" stroke-linejoin="round" d="M17.707 2.37L8.34 20.479l9.597 18.405"/><path d="M28.605 20.774H1.92" stroke="#EEB467" stroke-width="1.629" stroke-linecap="round" stroke-linejoin="round"/><path d="M37.314 21.22l-4.824 2.787a.652.652 0 0 1-.858-.187l-1.821-2.575a.931.931 0 0 1-.008-1.064l1.832-2.676a.652.652 0 0 1 .863-.196l4.816 2.782a.652.652 0 0 1 0 1.129z" fill="#FFF"/><path d="M27.346 19.3h1.845c.514 0 .931.416.931.93v1.019a.931.931 0 0 1-.931.93h-1.845a.931.931 0 0 1-.931-.93V20.23c0-.514.416-.93.93-.93z" fill="#D7A056"/><path d="M.697 16.864H6.95c.215 0 .418.092.55.25l2.232 2.834h-8.02L.147 17.91A.617.617 0 0 1 .269 17a.732.732 0 0 1 .428-.136zM.697 24.667H6.95a.718.718 0 0 0 .55-.25l2.232-2.834h-8.02L.147 23.622a.617.617 0 0 0 .122.909.732.732 0 0 0 .428.136z" fill="#FF3E3E"/><rect fill="#FF3E3E" x="24.561" y="15.573" width="6.488" height="2.609" rx="1.304"/><rect fill="#FF3E3E" x="24.561" y="23.124" width="6.488" height="2.609" rx="1.304"/></g></g></g></g></svg>