<svg width="65" height="80" viewBox="0 0 65 80" version="1.1" xmlns="http://www.w3.org/2000/svg"><title>Icon/Achievements/06-Overtime</title><g stroke="none" stroke-width="1" fill="none" fill-rule="evenodd"><g><g><path d="M9.14 0h46.72A9.14 9.14 0 0 1 65 9.14v50.803a9.14 9.14 0 0 1-5.275 8.283L36.308 79.155a9.14 9.14 0 0 1-7.745-.006l-23.3-10.92A9.14 9.14 0 0 1 0 59.954V9.141A9.14 9.14 0 0 1 9.14 0z" fill="#1CB0F6"/><g><g transform="translate(19 7)"><path d="M11.106 18.855L3.23 23.38v9.299h20.453v-9.299l-7.876-4.526a1.016 1.016 0 0 1 0-1.762l7.876-4.526V3.268H3.229v9.299l7.877 4.526a1.016 1.016 0 0 1 0 1.762z" fill="#FFF"/><path d="M14.453 15.9l3.514-2.641a1.92 1.92 0 0 0-1.154-3.455H9.787a1.92 1.92 0 0 0-1.154 3.455l3.513 2.64a1.92 1.92 0 0 0 2.307 0zM14.64 25.456l4.98 3.774a1.92 1.92 0 0 1-1.16 3.45H8.451A1.92 1.92 0 0 1 7.3 29.224l5.028-3.773a1.92 1.92 0 0 1 2.312.005z" fill="#FFC800"/><ellipse fill="#FFC800" cx="14.532" cy="21.242" rx="1.615" ry="1.634"/><path d="M5 32.408h16.912a1.77 1.77 0 0 1 0 3.54H4.999a1.77 1.77 0 1 1 0-3.54zM21.529 4.357h3.229v26.144h-3.229z" fill="#895C27"/><path d="M2.04 30.501h22.832a1.77 1.77 0 0 1 0 3.54H2.04a1.77 1.77 0 1 1 0-3.54zM2.04 2.179h22.832a1.77 1.77 0 0 1 0 3.54H2.04a1.77 1.77 0 0 1 0-3.54z" fill="#976A34"/><path d="M5 .68h16.912a1.77 1.77 0 1 1 0 3.54l-16.913.001a1.77 1.77 0 1 1 0-3.54z" fill="#976A34"/><path d="M5.27 30.501h5.877a1.77 1.77 0 0 1 0 3.54H5.27a1.77 1.77 0 1 1 0-3.54z" fill="#B48041"/><path fill="#976A34" d="M2.153 4.357h3.229v26.144H2.153z"/><path d="M5.27 2.179h5.877a1.77 1.77 0 0 1 0 3.54H5.27a1.77 1.77 0 0 1 0-3.54z" fill="#B48041"/></g></g></g></g></g></svg>